<svg width="240" height="240" viewBox="0 0 240 240" fill="none" xmlns="http://www.w3.org/2000/svg">
  <rect width="240" height="240" rx="36" fill="#FFF6D6"/>
  <circle cx="120" cy="132" r="58" fill="#FFE16A" stroke="#26231F" stroke-width="8"/>
  <path d="M66 118C68 80 92 56 120 56C148 56 172 80 174 118" fill="#FFD11A" stroke="#26231F" stroke-width="8" stroke-linecap="round"/>
  <path d="M58 120H182V130C182 141.046 173.046 150 162 150H78C66.9543 150 58 141.046 58 130V120Z" fill="#26231F"/>
  <circle cx="98" cy="130" r="6" fill="#26231F"/>
  <circle cx="142" cy="130" r="6" fill="#26231F"/>
  <path d="M98 157C108 166 132 166 142 157" stroke="#26231F" stroke-width="8" stroke-linecap="round"/>
  <rect x="85" y="182" width="70" height="14" rx="7" fill="#FFB327"/>
  <rect x="102" y="36" width="36" height="24" rx="10" fill="#FFB327" stroke="#26231F" stroke-width="6"/>
</svg>
